<svg width="11" height="7" viewBox="0 0 11 7" fill="none" xmlns="http://www.w3.org/2000/svg">
<path d="M0.720115 0.963951C0.861098 0.823011 1.05229 0.743835 1.25163 0.743835C1.45098 0.743835 1.64217 0.823011 1.78315 0.963951L5.50454 4.68534L9.22592 0.963951C9.36771 0.827005 9.55762 0.751229 9.75474 0.752942C9.95186 0.754655 10.1404 0.83372 10.2798 0.973109C10.4192 1.1125 10.4983 1.30106 10.5 1.49818C10.5017 1.69529 10.4259 1.8852 10.289 2.02699L6.03606 6.27989C5.89508 6.42083 5.70389 6.50001 5.50454 6.50001C5.30519 6.50001 5.114 6.42083 4.97302 6.27989L0.720115 2.02699C0.579176 1.88601 0.5 1.69482 0.5 1.49547C0.5 1.29612 0.579176 1.10493 0.720115 0.963951Z" fill="#1B1C1E"/>
</svg>
