<svg width="37" height="31" viewBox="0 0 37 31" fill="none" xmlns="http://www.w3.org/2000/svg">
<path fill-rule="evenodd" clip-rule="evenodd" d="M13.9669 2.50184C11.8933 2.50184 10.2123 4.18283 10.2123 6.25643C10.2123 8.33003 11.8933 10.011 13.9669 10.011C16.0405 10.011 17.7215 8.33003 17.7215 6.25643C17.7215 4.18283 16.0405 2.50184 13.9669 2.50184ZM8.71044 6.25643C8.71044 3.35338 11.0638 1 13.9669 1C16.8699 1 19.2233 3.35338 19.2233 6.25643C19.2233 9.15948 16.8699 11.5129 13.9669 11.5129C11.0638 11.5129 8.71044 9.15948 8.71044 6.25643ZM25.3819 12.8864C25.1079 12.4603 24.4992 12.4221 24.1742 12.8107L16.4738 22.0176C16.3397 22.178 16.1449 22.2752 15.9361 22.2858C15.7274 22.2965 15.5236 22.2197 15.3739 22.0738L10.2323 17.0664C9.89571 16.7387 9.34418 16.797 9.08357 17.1879L2.63174 26.8656C2.29906 27.3646 2.65679 28.0331 3.25654 28.0331H33.7436C34.3377 28.0331 34.6965 27.3758 34.3752 26.8761L25.3819 12.8864ZM23.0222 11.8472C23.9973 10.6814 25.8233 10.7958 26.6452 12.0743L35.6385 26.0639C36.6023 27.5632 35.5259 29.5349 33.7436 29.5349H3.25654C1.45728 29.5349 0.384085 27.5296 1.38214 26.0325L7.83397 16.3548C8.61579 15.1821 10.2704 15.0072 11.2801 15.9905L15.8414 20.4328L23.0222 11.8472Z" fill="#0093ED" stroke="#0093ED" stroke-linecap="round" stroke-linejoin="round"/>
</svg>
