<svg width="31" height="30" viewBox="0 0 31 30" fill="none" xmlns="http://www.w3.org/2000/svg">
<path d="M30.1432 0.273109C30.0305 0.173469 29.8983 0.0983095 29.755 0.0523841C29.6117 0.00645858 29.4604 -0.00923405 29.3107 0.00629846L10.025 2.14913C9.48217 2.20921 9.0714 2.668 9.07146 3.21412V22.3081C8.10041 21.727 6.98881 21.4228 5.85718 21.4284C2.90324 21.4285 0.5 23.3506 0.5 25.7142C0.5 28.0777 2.90324 29.9999 5.85712 29.9999C8.811 29.9999 11.2142 28.0788 11.2142 25.7142V9.53564L28.3571 7.62635V20.1621C27.3857 19.5821 26.2741 19.279 25.1428 19.2856C22.1889 19.2856 19.7857 21.2078 19.7857 23.5713C19.7857 25.9349 22.1889 27.8571 25.1428 27.8571C28.0967 27.8571 30.4999 25.936 30.4999 23.5713V1.07134C30.4999 0.766615 30.3702 0.476325 30.1432 0.273109Z" fill="#545151"/>
</svg>
