<svg width="31" height="30" viewBox="0 0 31 30" fill="none" xmlns="http://www.w3.org/2000/svg">
<path d="M15.5 0C12.5333 0 9.63319 0.879735 7.16645 2.52796C4.69972 4.17618 2.77713 6.51886 1.64181 9.25975C0.506499 12.0006 0.209449 15.0166 0.788228 17.9264C1.36701 20.8361 2.79562 23.5088 4.8934 25.6066C6.99119 27.7044 9.66394 29.133 12.5737 29.7118C15.4834 30.2906 18.4994 29.9935 21.2403 28.8582C23.9811 27.7229 26.3238 25.8003 27.9721 23.3336C29.6203 20.8668 30.5 17.9667 30.5 15C30.5 11.0218 28.9197 7.20644 26.1066 4.3934C23.2936 1.58035 19.4783 0 15.5 0ZM20.9908 9.60987C21.3716 9.60948 21.7439 9.72206 22.0606 9.93336C22.3774 10.1447 22.6244 10.4452 22.7703 10.7969C22.9161 11.1486 22.9544 11.5357 22.8802 11.9091C22.806 12.2826 22.6227 12.6257 22.3535 12.8949C22.0842 13.1642 21.7412 13.3475 21.3677 13.4217C20.9942 13.4959 20.6072 13.4576 20.2554 13.3117C19.9037 13.1658 19.6032 12.9188 19.3919 12.6021C19.1806 12.2853 19.068 11.913 19.0684 11.5322C19.0684 11.0224 19.271 10.5334 19.6315 10.1729C19.992 9.8124 20.481 9.60987 20.9908 9.60987ZM10.0092 9.60987C10.39 9.60948 10.7623 9.72206 11.0791 9.93336C11.3958 10.1447 11.6428 10.4452 11.7887 10.7969C11.9346 11.1486 11.9728 11.5357 11.8987 11.9091C11.8245 12.2826 11.6411 12.6257 11.3719 12.8949C11.1027 13.1642 10.7596 13.3475 10.3861 13.4217C10.0127 13.4959 9.62557 13.4576 9.27387 13.3117C8.92216 13.1658 8.62164 12.9188 8.41034 12.6021C8.19904 12.2853 8.08646 11.913 8.08685 11.5322C8.08737 11.0226 8.29007 10.5339 8.65047 10.1735C9.01088 9.81309 9.49953 9.61039 10.0092 9.60987ZM23.9474 18.825C23.3178 22.4191 19.775 24.9118 15.5 24.9118C11.225 24.9118 7.68422 22.4191 7.05461 18.825C7.04785 18.7885 7.04389 18.7516 7.04277 18.7145C7.04277 18.1954 7.67435 17.8599 8.22698 18.0493C10.3586 18.7855 12.8454 19.1605 15.502 19.1605C18.1586 19.1605 20.6454 18.7855 22.777 18.0493C23.3276 17.852 23.9612 18.1934 23.9612 18.7145C23.9595 18.7516 23.9548 18.7886 23.9474 18.825Z" fill="#545151"/>
</svg>
