<svg width="21" height="12" viewBox="0 0 21 12" fill="none" xmlns="http://www.w3.org/2000/svg">
<path d="M16.0001 0C15.7349 0 15.4805 0.105357 15.293 0.292893C15.1054 0.48043 15.0001 0.734784 15.0001 1C15.0001 1.26522 15.1054 1.51957 15.293 1.70711C15.4805 1.89464 15.7349 2 16.0001 2H17.5861L13.0001 6.586L9.20708 2.793C9.01955 2.60553 8.76525 2.50021 8.50008 2.50021C8.23492 2.50021 7.98061 2.60553 7.79308 2.793L1.29308 9.293C1.19757 9.38525 1.12139 9.49559 1.06898 9.6176C1.01657 9.7396 0.988985 9.87082 0.987831 10.0036C0.986677 10.1364 1.01198 10.2681 1.06226 10.391C1.11254 10.5138 1.18679 10.6255 1.28069 10.7194C1.37458 10.8133 1.48623 10.8875 1.60913 10.9378C1.73202 10.9881 1.8637 11.0134 1.99648 11.0123C2.12926 11.0111 2.26048 10.9835 2.38249 10.9311C2.50449 10.8787 2.61483 10.8025 2.70708 10.707L8.50008 4.914L12.2931 8.707C12.4806 8.89447 12.7349 8.99979 13.0001 8.99979C13.2652 8.99979 13.5196 8.89447 13.7071 8.707L19.0001 3.414V5C19.0001 5.26522 19.1054 5.51957 19.293 5.70711C19.4805 5.89464 19.7349 6 20.0001 6C20.2653 6 20.5197 5.89464 20.7072 5.70711C20.8947 5.51957 21.0001 5.26522 21.0001 5V1C21.0001 0.734784 20.8947 0.48043 20.7072 0.292893C20.5197 0.105357 20.2653 0 20.0001 0H16.0001Z" fill="#111111"/>
</svg>
