<svg width="200" height="50" viewBox="0 0 220 61" fill="#000000" xmlns="http://www.w3.org/2000/svg">
<path fill-rule="evenodd" clip-rule="evenodd" d="M3.77051 5.39887L5.02734 6.12806V11.9261V20.7619V53.0693L40.4638 32.497L30.1128 26.4881L18.6218 33.1589L14.8523 35.3475V30.9899V3.24518V1.95399V1.95194V1.94528C14.8533 1.76683 14.9195 -1.06426 17.5224 0.437685L18.6213 1.0756L42.5175 14.9479L43.379 15.4479L43.3811 15.4489L43.3867 15.4525C43.5513 15.551 46.1142 17.1314 43.4795 18.7282L42.5175 19.2866L37.0871 22.4392L32.0798 19.5481L36.2667 17.117L19.8776 7.60282V26.6317L30.1815 20.6496L35.1155 23.5832L35.1052 23.5889L46.7131 30.3274L47.5772 30.8289C49.2063 31.7744 49.3617 33.1267 47.5813 34.1548H47.5946L46.7131 34.6665L3.76948 59.5966L2.29113 60.455C0.141025 61.6954 0.0066662 59.6868 0 59.2991V59.2381V59.2361V57.4264V7.56692C0 6.81672 0 6.12036 0 5.39221C0 4.20614 0.944552 3.75745 1.93884 4.33484L3.76948 5.39784L3.77051 5.39887Z" fill="url(#paint0_linear_1_501)"/>
<path fill-rule="evenodd" clip-rule="evenodd" d="M85.6168 19.0107H83.1006V39.0159H87.9751V21.3618C87.9751 21.0377 87.9177 20.7372 87.8033 20.4624C87.6885 20.187 87.5156 19.9332 87.2859 19.703C87.051 19.4712 86.7941 19.2968 86.5167 19.1825C86.2414 19.0681 85.9409 19.0107 85.6173 19.0107H85.6168ZM85.6168 12.9778H83.1006V16.6652H87.9751V15.3227C87.9751 14.9992 87.9177 14.7007 87.8038 14.4274C87.6895 14.1541 87.5161 13.9013 87.2839 13.6695C87.0495 13.4377 86.7936 13.2644 86.5167 13.1496C86.2414 13.0352 85.9409 12.9778 85.6173 12.9778H85.6168Z" fill="white"/>
<path fill-rule="evenodd" clip-rule="evenodd" d="M207.032 32.759H202.303C202.307 33.842 202.486 34.7927 202.84 35.6116C203.195 36.4341 203.729 37.1279 204.441 37.6925L204.444 37.6956C205.83 38.8401 207.962 39.4129 210.838 39.4129C212.365 39.4129 213.695 39.2739 214.831 38.996C215.954 38.7212 216.887 38.3109 217.633 37.7648C218.423 37.1736 219.014 36.4593 219.408 35.6234C219.802 34.7845 220 33.8174 220 32.7231C220 31.9837 219.884 31.3201 219.652 30.735C219.423 30.1571 219.081 29.651 218.627 29.2182C218.129 28.7977 217.437 28.3993 216.548 28.0239C215.657 27.6481 214.564 27.2943 213.268 26.9625C213.167 26.961 213.062 26.9538 212.955 26.941C212.841 26.9271 212.721 26.9061 212.597 26.8779C212.48 26.8553 212.348 26.822 212.203 26.7815C212.063 26.7415 211.913 26.6948 211.759 26.6425C210.402 26.3548 209.379 26.0328 208.691 25.6769C207.922 25.279 207.538 24.819 207.538 24.297C207.538 23.9458 207.605 23.6335 207.74 23.3612C207.877 23.0848 208.081 22.8551 208.352 22.6735L208.364 22.6648C208.652 22.4946 209.004 22.3674 209.421 22.2849C209.825 22.2049 210.292 22.1649 210.824 22.1649C211.386 22.1649 211.892 22.2264 212.344 22.3495C212.804 22.4751 213.203 22.6653 213.539 22.9192L213.57 22.9469C213.743 23.1258 213.954 23.3361 214.17 23.5519L214.188 23.5699L214.23 23.6263C214.463 24.0263 214.746 24.3257 215.078 24.5221C215.407 24.717 215.791 24.8149 216.23 24.8149H219.263C219.191 23.9334 218.981 23.1284 218.635 22.4013C218.253 21.5998 217.704 20.8911 216.988 20.2747C216.219 19.7055 215.319 19.2769 214.288 18.9907C213.245 18.7015 212.064 18.5564 210.745 18.5564C209.533 18.5564 208.438 18.701 207.459 18.9887C206.489 19.2743 205.63 19.7015 204.884 20.2686C204.168 20.8839 203.633 21.5788 203.277 22.3515C202.921 23.1253 202.743 23.9827 202.743 24.9226C202.743 25.6585 202.865 26.3179 203.108 26.9009C203.35 27.4794 203.715 27.988 204.202 28.4255L204.212 28.4352C204.653 28.8736 205.316 29.2859 206.202 29.6705C207.102 30.0613 208.226 30.4217 209.576 30.7504L209.599 30.7566C209.825 30.8335 210.107 30.9084 210.443 30.9832C210.781 31.0586 211.182 31.135 211.647 31.2145L211.658 31.2166C212.775 31.454 213.618 31.755 214.188 32.1201C214.813 32.5206 215.125 33.0026 215.125 33.5661C215.125 33.9251 215.033 34.2492 214.85 34.5379C214.671 34.8189 214.407 35.0619 214.06 35.265L214.052 35.2686C213.697 35.4619 213.307 35.6065 212.884 35.7014C212.464 35.7962 212.011 35.8434 211.529 35.8434C210.864 35.8434 210.264 35.7762 209.726 35.6419C209.182 35.506 208.702 35.3009 208.286 35.026L208.279 35.0204C207.881 34.7358 207.575 34.3799 207.362 33.9533C207.188 33.602 207.076 33.2031 207.031 32.7575L207.032 32.759Z" fill="white"/>
<path fill-rule="evenodd" clip-rule="evenodd" d="M198.005 39.0765C198.823 39.0883 199.617 39.0734 200.385 39.0319V35.5265H199.036C198.455 35.5265 198.011 35.3957 197.702 35.1342C197.381 34.8609 197.22 34.464 197.22 33.9415V22.2428H198.033C198.36 22.2428 198.663 22.1879 198.938 22.0782C199.213 21.9689 199.466 21.8028 199.697 21.5813C199.926 21.3639 200.098 21.1152 200.211 20.8357C200.326 20.5532 200.384 20.2357 200.384 19.885V19.0697H197.22V15.3289C197.22 15.0023 197.162 14.7018 197.048 14.4279C196.934 14.1536 196.76 13.9013 196.528 13.669C196.292 13.4352 196.041 13.2614 195.778 13.147C195.517 13.0342 195.238 12.9778 194.941 12.9778H192.425V35.4254C192.425 36.5464 192.655 37.3986 193.112 37.9801C193.56 38.5483 194.241 38.8683 195.153 38.938C196.149 39.017 197.099 39.0637 198.005 39.0765Z" fill="white"/>
<path fill-rule="evenodd" clip-rule="evenodd" d="M178.291 29.3143V39.0172H183.166V28.7015C183.166 27.901 183.261 27.2042 183.451 26.6093C183.644 26.0012 183.937 25.5012 184.327 25.1079C184.717 24.7167 185.211 24.4239 185.807 24.23C186.389 24.0408 187.068 23.9454 187.843 23.9454H189.35V18.9924H188.845C188.156 18.9924 187.482 19.036 186.823 19.1237C186.161 19.2114 185.506 19.3442 184.862 19.5227C184.224 19.6991 183.624 19.9257 183.066 20.2016C182.511 20.4759 181.994 20.801 181.517 21.1754C181.017 21.5733 180.572 22.0358 180.182 22.5629C179.787 23.0947 179.446 23.6936 179.159 24.3587C178.872 25.0207 178.655 25.7637 178.51 26.5873C178.365 27.4149 178.292 28.3241 178.292 29.3148L178.291 29.3143Z" fill="white"/>
<path fill-rule="evenodd" clip-rule="evenodd" d="M158.734 35.6605C159.105 36.2604 159.55 36.7835 160.07 37.2301L160.075 37.2347C160.568 37.6778 161.15 38.0593 161.818 38.3782C162.49 38.6982 163.247 38.9536 164.087 39.1433C164.929 39.3295 165.767 39.413 166.6 39.3941C167.431 39.3751 168.261 39.2525 169.092 39.0269L169.106 39.0238C170.027 38.8233 170.866 38.4685 171.624 37.9603C172.381 37.4516 173.058 36.7881 173.655 35.9712C173.928 35.5738 174.178 35.1282 174.403 34.638C174.631 34.1452 174.833 33.6073 175.009 33.0273C175.186 32.45 175.319 31.8156 175.406 31.1249C175.494 30.4347 175.538 29.6794 175.538 28.8605C175.538 27.7416 175.431 26.6965 175.217 25.7263C175.004 24.7607 174.684 23.8639 174.256 23.0378L174.253 23.0327C173.802 22.1092 173.228 21.3225 172.532 20.6749C171.837 20.0288 171.016 19.5175 170.072 19.1447C169.248 18.8448 168.371 18.6545 167.443 18.5735C166.507 18.492 165.521 18.5207 164.486 18.6591C163.464 18.7966 162.535 19.0873 161.7 19.5298C160.867 19.9714 160.126 20.5657 159.48 21.3107L159.478 21.3128C159.081 21.761 158.735 22.2645 158.443 22.823C158.149 23.3845 157.909 24.0034 157.723 24.6787C157.342 26.0453 157.153 27.4124 157.153 28.781C157.153 29.622 157.21 30.4444 157.323 31.2459C157.436 32.0495 157.607 32.8376 157.834 33.6093C158.061 34.3739 158.361 35.058 158.734 35.6615L158.734 35.6605ZM162.153 25.9766C162.408 25.0515 162.822 24.2762 163.39 23.6516L163.401 23.6408C163.601 23.4444 163.855 23.266 164.163 23.1045C164.462 22.9481 164.812 22.8076 165.212 22.6845L165.215 22.6835C165.626 22.5609 166.041 22.503 166.457 22.5096C166.872 22.5163 167.287 22.5891 167.698 22.726C168.12 22.8665 168.515 23.0968 168.881 23.4162C169.24 23.7301 169.575 24.1311 169.885 24.6172C170.201 25.1064 170.435 25.7155 170.59 26.4432C170.743 27.159 170.819 27.9903 170.819 28.9374L170.818 28.944C170.791 29.9896 170.692 30.8952 170.521 31.6582C170.346 32.4397 170.095 33.0761 169.771 33.5647C169.448 34.0504 169.097 34.4477 168.719 34.7564C168.337 35.0703 167.926 35.2902 167.49 35.4159C166.635 35.663 165.793 35.6354 164.967 35.3313C164.564 35.1831 164.218 35.0174 163.93 34.8334C163.633 34.6431 163.397 34.4329 163.223 34.2001C162.815 33.7052 162.495 33.0304 162.267 32.1756C162.044 31.3413 161.906 30.3296 161.856 29.1404C161.802 27.9421 161.901 26.8862 162.152 25.976L162.153 25.9766Z" fill="white"/>
<path fill-rule="evenodd" clip-rule="evenodd" d="M147.549 23.074C148.117 23.3648 148.607 23.7976 149.022 24.3734L149.025 24.3775C149.265 24.7247 149.463 25.0703 149.618 25.4118C149.773 25.7584 149.887 26.1046 149.958 26.4486L149.959 26.4507C150.023 26.7768 150.072 27.1271 150.105 27.4983C150.138 27.866 150.155 28.2423 150.155 28.6259V39.0144H154.793V27.3075C154.793 26.1461 154.674 25.1139 154.436 24.2108C154.199 23.3165 153.846 22.5469 153.376 21.9023C152.904 21.2547 152.374 20.6942 151.787 20.2209C151.201 19.7476 150.558 19.361 149.86 19.0605C149.113 18.762 148.348 18.5887 147.566 18.5395C146.781 18.4902 145.977 18.5651 145.154 18.7625C144.337 18.9615 143.614 19.2943 142.986 19.7609C142.359 20.2281 141.821 20.8321 141.375 21.5731L140.868 21.4326V15.3341C140.868 15.0069 140.811 14.7054 140.697 14.4295C140.582 14.1536 140.408 13.8993 140.177 13.6675C139.942 13.4357 139.687 13.2624 139.412 13.1476C139.137 13.0332 138.837 12.9758 138.51 12.9758H136.152V39.0139H140.868V28.7049C140.868 27.7808 140.969 26.9517 141.169 26.2179C141.372 25.4743 141.678 24.8313 142.084 24.2888C142.498 23.7381 143.004 23.3242 143.599 23.0484C144.192 22.774 144.87 22.6366 145.631 22.6366C146.342 22.6366 146.982 22.7822 147.551 23.073L147.549 23.074Z" fill="white"/>
<path fill-rule="evenodd" clip-rule="evenodd" d="M116.965 31.2946H112.076C112.175 32.6115 112.458 33.7745 112.925 34.7816C113.422 35.8502 114.129 36.746 115.047 37.467L115.055 37.4747C115.902 38.1967 116.963 38.7387 118.238 39.1018C119.525 39.4679 121.032 39.6504 122.758 39.6504C124.438 39.6504 125.922 39.474 127.21 39.1213C128.489 38.771 129.579 38.2459 130.476 37.546C131.368 36.8014 132.038 35.9087 132.485 34.8682C132.935 33.8211 133.16 32.6207 133.16 31.2664C133.16 30.6419 133.092 30.0445 132.955 29.4753C132.819 28.9061 132.614 28.3605 132.342 27.8405C132.074 27.378 131.748 26.956 131.367 26.5745C130.984 26.1919 130.546 25.852 130.054 25.554L127.925 24.6418C127.621 24.5679 127.223 24.4654 126.745 24.3418L126.291 24.2244C125.943 24.1372 125.563 24.0305 125.15 23.9059C124.766 23.79 124.337 23.6531 123.864 23.4957C123.652 23.467 123.388 23.4132 123.074 23.3362C122.748 23.2568 122.366 23.1521 121.926 23.0234C118.814 22.3255 117.257 21.202 117.257 19.6693C117.257 19.115 117.363 18.6191 117.575 18.1828C117.788 17.7428 118.107 17.3669 118.529 17.0567C118.892 16.7526 119.367 16.5255 119.953 16.3752C120.531 16.227 121.219 16.1527 122.012 16.1527C122.832 16.1527 123.569 16.2398 124.224 16.4147C124.888 16.5916 125.465 16.8583 125.957 17.2136L125.965 17.2203C126.21 17.4121 126.43 17.6279 126.624 17.8648C126.819 18.1023 126.985 18.3587 127.122 18.632L127.124 18.6371C127.359 19.134 127.667 19.5037 128.047 19.7462C128.426 19.9878 128.888 20.1088 129.429 20.1088H132.229C132.157 18.9663 131.912 17.9279 131.497 16.9936C131.051 15.9881 130.404 15.0979 129.559 14.322C128.738 13.6272 127.742 13.1052 126.57 12.7565C125.386 12.4042 124.02 12.2283 122.473 12.2283C120.823 12.2283 119.371 12.3981 118.119 12.7385C116.879 13.0754 115.835 13.58 114.988 14.2523C114.147 14.9451 113.516 15.7681 113.095 16.7203C112.673 17.6772 112.461 18.7679 112.461 19.9929C112.461 20.6959 112.523 21.3349 112.647 21.9081C112.77 22.4753 112.954 22.9778 113.197 23.4142L113.213 23.4496C113.409 23.9613 113.678 24.4131 114.019 24.8038C114.357 25.191 114.768 25.5197 115.253 25.7874L115.278 25.8032C115.695 26.095 116.331 26.3863 117.184 26.6745C118.045 26.9652 119.126 27.2519 120.428 27.5334L121.058 27.6939L121.107 27.7128L121.231 27.7718C123.562 28.2943 125.315 28.8953 126.491 29.5758C127.74 30.2983 128.364 31.1234 128.364 32.052C128.364 32.6346 128.251 33.1519 128.027 33.6027C127.802 34.0555 127.463 34.438 127.013 34.7482C126.571 35.0513 126.031 35.2785 125.394 35.4277C124.767 35.5743 124.044 35.6482 123.226 35.6482C122.3 35.6482 121.471 35.5543 120.741 35.3677C120.004 35.1795 119.366 34.8959 118.825 34.5165C118.299 34.1821 117.876 33.7216 117.558 33.1355C117.277 32.6192 117.079 32.0064 116.965 31.2972L116.965 31.2946Z" fill="white"/>
<path fill-rule="evenodd" clip-rule="evenodd" d="M104.528 36.7515L104.527 38.0807C104.473 38.9268 104.343 39.6693 104.137 40.3082C103.927 40.9595 103.636 41.505 103.264 41.9435C102.902 42.3758 102.515 42.7245 102.106 42.9916C101.692 43.2614 101.256 43.4459 100.799 43.5449C100.342 43.6403 99.8877 43.6613 99.4339 43.607C98.9821 43.5526 98.5299 43.4229 98.0771 43.2162C97.6274 43.0106 97.2336 42.7598 96.8977 42.465C96.6003 42.204 96.349 41.9086 96.1439 41.5799H91.016C91.5786 43.5634 92.5313 45.0612 93.8717 46.0734C95.2906 47.1446 97.1556 47.6805 99.4626 47.6805C100.673 47.6805 101.839 47.5195 102.961 47.198C104.086 46.876 105.167 46.3929 106.204 45.7509C107.212 45.1253 107.969 44.2238 108.475 43.046C108.988 41.8517 109.245 40.3708 109.245 38.6042V27.7122C109.245 25.9452 108.989 24.4606 108.475 23.2597C107.969 22.0757 107.211 21.1635 106.201 20.525C105.164 19.8692 104.084 19.3764 102.961 19.0482C101.84 18.7211 100.672 18.5565 99.4559 18.5565C97.8673 18.5565 96.4998 18.797 95.3532 19.2779C94.2184 19.7548 93.2979 20.4686 92.5928 21.4193C91.878 22.3844 91.3416 23.4976 90.9842 24.7596C90.6248 26.0282 90.4453 27.4491 90.4453 29.0244C90.4453 30.3674 90.5812 31.5786 90.8525 32.6575C91.1217 33.7282 91.5247 34.6697 92.0611 35.4809C92.6046 36.2977 93.1985 36.9833 93.8435 37.5387C94.484 38.0899 95.1778 38.515 95.9244 38.8134C96.6669 39.1119 97.4161 39.2919 98.1683 39.3539C98.9242 39.417 99.6831 39.3616 100.444 39.1898C101.193 39.0165 101.866 38.715 102.461 38.2858C103.058 37.8556 103.581 37.2941 104.028 36.6039L104.528 36.7521V36.7515ZM95.9654 33.438C95.4296 32.4129 95.1609 30.9894 95.1609 29.1695C95.1609 28.3281 95.2409 27.5297 95.3998 26.7754C95.5593 26.0195 95.7988 25.3103 96.1172 24.6483C96.4485 23.953 96.9382 23.4289 97.5828 23.0782C98.2166 22.7336 98.9949 22.5608 99.9164 22.5608C100.599 22.5608 101.204 22.6854 101.73 22.9341C102.261 23.1859 102.708 23.5628 103.071 24.0643C103.42 24.5468 103.704 25.0621 103.925 25.6113C104.145 26.1595 104.301 26.7384 104.393 27.3487C104.486 27.9548 104.53 28.5644 104.524 29.1752C104.519 29.792 104.463 30.41 104.359 31.0268C104.25 31.6509 104.108 32.1939 103.935 32.6554C103.756 33.1272 103.542 33.5174 103.293 33.8236C102.771 34.5348 102.102 35.0183 101.291 35.2717C100.488 35.5224 99.5488 35.5465 98.4755 35.3434C97.3576 35.1363 96.5208 34.5004 95.9649 33.4374L95.9654 33.438Z" fill="white"/>
<path fill-rule="evenodd" clip-rule="evenodd" d="M59.2066 15.4877V39.0163H71.0719C72.5944 39.0163 73.9409 38.8471 75.1111 38.5081C76.2715 38.1717 77.2633 37.6677 78.0858 36.9949C78.8739 36.3031 79.4662 35.475 79.861 34.5125C80.2589 33.5423 80.4579 32.4311 80.4579 31.1794C80.4579 30.399 80.3769 29.6995 80.2159 29.0811C80.0559 28.4694 79.8169 27.9335 79.5 27.4725C79.1498 26.9772 78.7262 26.5382 78.2299 26.1557C77.7299 25.7701 77.1546 25.4403 76.5043 25.166L75.9608 24.9368L76.489 24.6732C76.9838 24.426 77.4253 24.1348 77.8104 23.801C78.1883 23.4723 78.5119 23.1031 78.7785 22.6918C79.0467 22.2513 79.2488 21.7601 79.3836 21.2191C79.5195 20.675 79.5877 20.0782 79.5877 19.431C79.5877 18.4131 79.4154 17.5024 79.0703 16.6999C78.7278 15.9041 78.2145 15.2108 77.5289 14.6206C76.1346 13.5258 74.1071 12.9781 71.4401 12.9781H61.7151C61.3639 12.9781 61.0398 13.0387 60.7455 13.1597C60.4522 13.2807 60.1814 13.4638 59.9363 13.7089C59.6912 13.954 59.5081 14.2247 59.3871 14.518C59.2661 14.8124 59.2051 15.1365 59.2051 15.4877H59.2066ZM70.6766 34.775H63.9227V27.2674H70.5976C71.4134 27.2674 72.1159 27.3345 72.7041 27.4679C73.3092 27.6053 73.7948 27.815 74.1594 28.0966L74.1614 28.0986C74.5588 28.4124 74.8578 28.8185 75.0563 29.3159C75.2496 29.8005 75.347 30.3697 75.347 31.0215C75.347 31.6748 75.2491 32.2383 75.0552 32.7106C74.8547 33.1988 74.5527 33.5869 74.1517 33.8741C73.7394 34.1761 73.2389 34.4028 72.6523 34.553C72.0739 34.7012 71.415 34.7756 70.676 34.7756L70.6766 34.775ZM70.4325 23.263H63.9227V17.0609H70.3535C71.1139 17.0609 71.7555 17.1143 72.277 17.2214C72.8179 17.3327 73.2343 17.5045 73.5246 17.7373C73.8686 18.0004 74.1286 18.3337 74.3014 18.7388C74.4701 19.1346 74.5553 19.5951 74.5553 20.1228C74.5553 20.6494 74.4701 21.1119 74.3014 21.5083C74.1286 21.9139 73.8686 22.2483 73.523 22.5088C73.183 22.7662 72.7497 22.9574 72.2257 23.0825C71.717 23.203 71.1191 23.2636 70.432 23.2636L70.4325 23.263Z" fill="white"/>
<defs>
<linearGradient id="paint0_linear_1_501" x1="0.00102404" y1="57.428" x2="44.7122" y2="26.6214" gradientUnits="userSpaceOnUse">
<stop stop-color="#03FCFE"/>
<stop offset="0.278431" stop-color="#599BEF"/>
<stop offset="0.501961" stop-color="#8868E7"/>
<stop offset="0.729412" stop-color="#B33ADF"/>
<stop offset="1" stop-color="#E300DD"/>
</linearGradient>
</defs>
</svg>
