<svg width="23" height="28" viewBox="0 0 23 28" fill="none" xmlns="http://www.w3.org/2000/svg">
<path fill-rule="evenodd" clip-rule="evenodd" d="M1.73485 2.4841L2.31313 2.81961V5.48737V9.55283V24.4179L18.6178 14.9523L13.8552 12.1876L8.56807 15.2569L6.83369 16.2639V14.2589V1.49315V0.899058V0.898114V0.895049C6.83416 0.812942 6.8646 -0.489681 8.06222 0.201385L8.56783 0.494897L19.5627 6.87776L19.9591 7.1078L19.9601 7.10827L19.9627 7.10992C20.0384 7.15522 21.2176 7.88239 20.0054 8.6171L19.5627 8.87404L17.0642 10.3246L14.7602 8.99437L16.6867 7.87578L9.14588 3.49816V12.2536L13.8868 9.50117L16.157 10.851L16.1523 10.8536L21.4932 13.954L21.8907 14.1848C22.6403 14.6199 22.7118 15.242 21.8926 15.7151H21.8988L21.4932 15.9506L1.73438 27.4212L1.05417 27.8162C0.0648869 28.3869 0.00306718 27.4627 0 27.2844V27.2563V27.2553V26.4227V3.48165C0 3.13647 0 2.81606 0 2.48103C0 1.9353 0.434598 1.72885 0.89208 1.99452L1.73438 2.48362L1.73485 2.4841Z" fill="url(#paint0_linear_118_1308)"/>
<defs>
<linearGradient id="paint0_linear_118_1308" x1="0.000471171" y1="26.4234" x2="20.5727" y2="12.2491" gradientUnits="userSpaceOnUse">
<stop stop-color="#03FCFE"/>
<stop offset="0.278431" stop-color="#599BEF"/>
<stop offset="0.501961" stop-color="#8868E7"/>
<stop offset="0.729412" stop-color="#B33ADF"/>
<stop offset="1" stop-color="#E300DD"/>
</linearGradient>
</defs>
</svg>
