<?xml version="1.0" standalone="no"?>
<!DOCTYPE svg PUBLIC "-//W3C//DTD SVG 20010904//EN" "http://www.w3.org/TR/2001/REC-SVG-20010904/DTD/svg10.dtd">
<svg version="1.0" xmlns="http://www.w3.org/2000/svg" width="512pt" height="512pt" viewBox="-7 -7 524 524"
        preserveAspectRatio="xMidYMid meet">

        <g transform="translate(0.000000,512.000000) scale(0.100000,-0.100000)" fill="#000000" stroke="#000000"
                stroke-width="150" stroke-linejoin="round" stroke-linecap="round">
                <path d="M2432 5105 c-244 -53 -432 -264 -460 -516 l-7 -63 -100 -31 c-650
-207 -1183 -701 -1436 -1333 -107 -266 -156 -510 -166 -827 -5 -164 -4 -195
10 -222 29 -55 96 -61 131 -11 13 18 16 52 16 188 0 352 68 657 214 955 199
407 509 727 916 947 144 78 440 189 440 165 0 -25 69 -154 108 -203 137 -170
377 -256 586 -210 178 40 325 155 403 316 23 47 46 109 52 138 16 76 14 208
-4 276 -79 301 -398 497 -703 431z m238 -159 c212 -56 351 -267 320 -487 -37
-259 -309 -427 -564 -349 -196 61 -326 270 -296 481 35 248 295 419 540 355z" />
                <path d="M3481 4359 c-28 -30 -35 -67 -17 -94 8 -12 54 -44 101 -69 603 -326
992 -870 1112 -1556 14 -82 18 -157 18 -340 0 -231 -5 -284 -42 -458 l-15 -74
-47 7 c-206 31 -381 -24 -521 -165 -223 -222 -239 -560 -40 -799 59 -70 174
-150 261 -181 88 -30 240 -38 333 -16 218 51 394 237 442 466 44 209 -37 429
-211 572 l-73 59 14 52 c30 116 55 310 61 467 31 880 -445 1695 -1231 2108
-89 47 -117 51 -145 21z m1073 -2739 c236 -38 398 -266 358 -502 -16 -92 -53
-165 -117 -229 -136 -138 -346 -170 -521 -81 -21 11 -63 44 -93 73 -151 152
-174 390 -52 560 74 103 172 161 311 182 44 7 54 7 114 -3z" />
                <path d="M2450 3499 c-217 -18 -436 -103 -615 -238 -222 -169 -389 -430 -451
-706 -25 -109 -29 -341 -10 -455 77 -439 385 -795 814 -939 233 -78 517 -79
742 -4 302 101 552 316 697 599 173 338 179 740 16 1069 -224 451 -691 715
-1193 674z m235 -160 c420 -52 761 -343 879 -753 66 -228 46 -502 -53 -721
-29 -64 -110 -195 -121 -195 -3 0 -18 32 -33 70 -77 189 -229 348 -429 447
l-68 33 41 43 c88 91 130 198 130 332 0 191 -98 343 -276 426 -336 157 -715
-127 -664 -498 12 -87 64 -194 124 -255 l45 -46 -72 -36 c-197 -95 -359 -270
-433 -468 -10 -27 -20 -48 -24 -48 -11 0 -80 114 -120 200 -75 161 -107 349
-90 535 22 237 124 455 291 624 127 130 268 216 443 270 155 48 275 59 430 40z
m-47 -441 c236 -58 319 -363 145 -530 -101 -97 -251 -120 -371 -59 -56 29
-127 112 -149 174 -83 242 129 476 375 415z m92 -804 c221 -51 425 -239 493
-452 41 -127 43 -116 -31 -172 -127 -95 -288 -165 -449 -196 -115 -22 -333
-14 -444 15 -86 22 -182 60 -249 99 -60 34 -178 122 -183 136 -8 21 23 121 63
202 66 135 209 271 346 329 127 54 321 71 454 39z" />
                <path d="M560 1779 c-131 -14 -274 -89 -364 -191 -61 -69 -122 -193 -142 -288
-63 -297 128 -599 429 -680 68 -18 100 -22 182 -18 94 5 137 15 242 59 31 13
32 12 101 -52 150 -142 335 -267 554 -374 636 -312 1387 -309 2023 7 113 57
274 157 285 178 19 35 12 77 -16 99 -38 30 -61 26 -139 -22 -497 -306 -1043
-406 -1597 -292 -363 74 -732 263 -993 507 l-64 60 38 51 c90 121 126 226 126
372 0 170 -50 290 -170 410 -134 134 -304 194 -495 174z m226 -180 c210 -78
326 -304 269 -523 -48 -185 -221 -317 -417 -318 -206 0 -371 127 -423 327 -66
254 102 498 370 538 50 8 147 -4 201 -24z" />
        </g>
</svg>